<mxfile host="app.diagrams.net" modified="2024-04-07T08:43:13.888Z" agent="Mozilla/5.0 (Windows NT 10.0; Win64; x64; rv:124.0) Gecko/20100101 Firefox/124.0" version="24.2.2" etag="lJIZ5y59ok3XxesPoN6T" type="github">
  <diagram name="Page-1" id="9ASX5wsh2XkKsEAFpT5j">
    <mxGraphModel>
      <root>
        <mxCell id="0" />
        <mxCell id="1" parent="0" />
      </root>
    </mxGraphModel>
  </diagram>
</mxfile>
